# xmcd
#
# Track frame offsets:
#	183
#	12350
#	27568
#	41375
#	55205
#	69968
#	80340
#	92693
#	103798
#	114668
#	126903
#	147315
#	161793
#	180008
#	197120
#	221595
#	234843
#	249608
#	263020
#	274700
#	287685
#
# Disc length: 3972 seconds
#
# Revision: 2
# Processed by: cddbd v1.5.1PL2 Copyright (c) Steve Scherf et al.
# Submitted via: audiograbber 1.83.01
#
DISCID=250f8215
DTITLE=Various Artist - Slidin' 
DYEAR=1991
DGENRE=blues
TTITLE0=Elmore James - Country boogie
TTITLE1=Elmore James - My best friend
TTITLE2=Elmore James - I see my baby
TTITLE3=Elmore James - She just won't do right
TTITLE4=Elmore James - Whose muddy shoes
TTITLE5=Elmore James - I can't hold out
TTITLE6=Elmore James - The sun is shining
TTITLE7=Elmore James - Stormy monday blues
TTITLE8=Elmore James - Madison blues
TTITLE9=Hound dog Taylor - The sun is shining (alt.)
TTITLE10=Hound dog Taylor - Hound dog
TTITLE11=Hound dog Taylor - Watch out
TTITLE12=Hound dog Taylor - Scrappin'
TTITLE13=Hound dog Taylor - Sittin' here alone
TTITLE14=Hound dog Taylor - Down home
TTITLE15=Earl Hooker - Tanya
TTITLE16=Earl Hooker - Oh baby
TTITLE17=John Littlejohn - Keep on running
TTITLE18=John Littlejohn - She's too much
TTITLE19=John Littlejohn - When I think about my baby
TTITLE20=John Littlejohn - I had a dream
EXTD=
EXTT0=performed: Elmore James
EXTT1=performed: Elmore James
EXTT2=performed: Elmore James
EXTT3=performed: Elmore James
EXTT4=performed: Elmore James
EXTT5=performed: Elmore James
EXTT6=performed: Elmore James
EXTT7=performed: Elmore James
EXTT8=performed: Elmore James
EXTT9=performed: Elmore James
EXTT10=performed: Hound dog Taylor
EXTT11=performed: Hound dog Taylor
EXTT12=performed: Hound dog Taylor
EXTT13=performed: Hound dog Taylor
EXTT14=performed: Hound dog Taylor
EXTT15=performed: Earl Hooker
EXTT16=performed: Earl Hooker
EXTT17=performed: John Littlejohn
EXTT18=performed: John Littlejohn
EXTT19=performed: John Littlejohn
EXTT20=performed: John Littlejohn
PLAYORDER=
